<svg class="img-fluid" id="outputsvg" xmlns="http://www.w3.org/2000/svg" width="366" height="62" viewBox="0 0 3660 620" style="transform: matrix(1, 0, 0, 1, 0, 0); transform-origin: 50% 50%; cursor: move; max-height: none; transition: transform 200ms ease-in-out;"><g id="l4NXyPOQqIvBkxtX1Gdx9Dv" fill="rgb(177,53,58)" style="transform: none;"><g><path id="pfM3f0Ghl" d="M120 570 c0 -20 7 -20 290 -20 283 0 290 0 290 20 0 20 -7 20 -290 20 -283 0 -290 0 -290 -20z"></path><path id="pofDQm2aC" d="M1960 565 c0 -21 5 -25 30 -25 25 0 30 4 30 25 0 21 -5 25 -30 25 -25 0 -30 -4 -30 -25z"></path><path id="pCudq4Ain" d="M3120 565 c0 -18 5 -25 20 -25 11 0 20 -4 20 -10 0 -18 28 -11 33 9 7 29 -11 51 -43 51 -25 0 -30 -4 -30 -25z"></path><path id="p14QSN0XqY" d="M3276 574 c-11 -29 -6 -34 29 -34 31 0 35 3 35 25 0 21 -5 25 -29 25 -17 0 -31 -6 -35 -16z"></path><path id="p95a5kavO" d="M1580 371 c0 -30 1 -31 45 -31 37 0 45 3 45 19 0 12 -10 21 -27 25 -16 4 -36 9 -45 12 -14 4 -18 -1 -18 -25z"></path><path id="p5AYbrGQm" d="M2500 369 c0 -28 2 -29 45 -29 38 0 45 3 45 20 0 11 -3 20 -7 20 -5 0 -25 4 -45 9 -37 9 -38 8 -38 -20z"></path><path id="p18vrqKttU" d="M3420 369 c0 -28 2 -29 45 -29 38 0 45 3 45 20 0 11 -3 20 -7 20 -5 0 -25 4 -45 9 -37 9 -38 8 -38 -20z"></path><path id="p18BiKz49G" d="M2030 290 c0 -29 2 -30 45 -30 41 0 45 2 45 24 0 17 -5 24 -17 24 -10 -1 -30 2 -45 5 -26 7 -28 5 -28 -23z"></path><path id="pIurAVuzO" d="M1100 141 c0 -16 3 -43 6 -60 6 -29 9 -31 50 -31 41 0 44 2 44 26 0 14 -4 22 -10 19 -5 -3 -19 -1 -31 5 -17 9 -20 18 -15 41 5 26 3 29 -19 29 -21 0 -25 -5 -25 -29z"></path><path id="p1B7iMLN0C" d="M470 84 c0 -21 5 -24 35 -24 22 0 35 5 35 13 0 8 -16 18 -35 24 -33 11 -35 10 -35 -13z"></path></g></g><g id="l5EhDdmzvfaeQezHx6cVND7" fill="rgb(191,20,26)" style="transform: none;"><g><path id="psBnoOkgx" d="M17 582 c-14 -3 -17 -16 -17 -68 0 -64 0 -64 113 -147 235 -174 366 -250 426 -245 33 3 36 6 39 37 2 18 -6 60 -19 93 -12 32 -20 60 -18 63 2 2 28 -11 56 -28 40 -24 55 -40 63 -67 25 -86 0 -145 -61 -143 -104 3 -239 81 -551 319 -48 36 -48 36 -48 -175 0 -211 0 -211 433 -209 432 3 432 3 435 95 3 92 3 92 -65 124 -37 18 -108 57 -158 87 -135 83 -183 108 -191 100 -4 -4 6 -35 21 -69 15 -34 28 -76 29 -93 1 -27 -3 -31 -27 -34 -27 -3 -91 28 -146 70 -33 25 -20 23 39 -7 94 -47 101 -30 39 99 -30 61 -39 93 -35 111 10 40 44 31 150 -40 104 -69 154 -89 191 -75 46 17 80 84 87 169 3 34 3 34 -383 35 -212 1 -393 0 -402 -2z"></path><path id="pOpfHqI1" d="M1145 579 c-41 -12 -97 -59 -120 -102 -19 -36 -19 -36 9 -76 16 -23 32 -41 37 -41 5 0 16 15 25 33 38 74 91 108 129 83 54 -35 37 -75 -71 -166 -100 -84 -124 -119 -124 -180 0 -145 206 -179 299 -49 17 23 31 47 31 54 0 6 -14 24 -31 41 -30 28 -32 28 -43 10 -26 -45 -66 -82 -101 -95 -41 -15 -40 -15 -49 21 -7 30 13 54 134 158 72 62 104 119 94 171 -22 112 -113 170 -219 138z"></path><path id="pCJQpOkjY" d="M1443 578 c-4 -7 -9 -60 -11 -118 -4 -124 13 -215 58 -299 35 -66 106 -151 125 -151 22 0 103 98 135 163 44 92 58 159 54 257 -3 47 -8 101 -12 120 -7 34 -10 35 -56 38 -68 4 -81 -1 -62 -30 21 -35 37 -123 27 -151 -11 -29 -80 -46 -93 -23 -4 8 -19 17 -33 20 -45 11 -53 79 -19 148 8 15 14 29 14 33 0 11 -119 5 -127 -7z m202 -285 c32 -4 45 -10 45 -22 -1 -26 -56 -126 -71 -126 -29 0 -90 129 -73 156 3 6 17 8 30 5 13 -4 44 -9 69 -13z"></path><path id="pbIaK0OA9" d="M1900 565 c-5 -14 -15 -77 -22 -140 -12 -117 -3 -268 23 -370 11 -45 11 -45 70 -45 64 0 71 8 49 65 -10 26 -15 48 -27 119 -6 39 -6 39 33 30 21 -4 59 -9 84 -9 42 -1 45 -3 42 -25 -3 -23 -22 -101 -38 -158 -6 -23 -5 -23 57 -20 63 3 63 3 77 48 23 77 27 280 7 405 -9 61 -22 113 -28 117 -17 11 -117 10 -117 -1 0 -5 5 -22 11 -38 12 -30 38 -177 36 -205 0 -10 -10 -20 -21 -23 -12 -4 -30 -11 -42 -16 -17 -9 -27 -5 -57 22 -46 41 -55 91 -33 178 19 76 19 71 1 71 -8 0 -15 5 -15 10 0 6 -18 10 -40 10 -34 0 -42 -4 -50 -25z"></path><path id="p88cU12p0" d="M2360 569 c-37 -68 -15 -284 40 -394 35 -71 97 -151 125 -161 39 -14 144 135 179 255 19 64 20 204 3 271 -12 45 -12 45 -69 48 -32 2 -58 -1 -58 -6 0 -5 7 -23 16 -40 22 -46 30 -135 13 -149 -21 -16 -79 -27 -79 -14 0 6 -11 13 -24 17 -44 11 -60 38 -52 91 3 26 13 57 21 69 19 29 11 34 -51 34 -44 0 -55 -4 -64 -21z m193 -276 c26 -3 50 -9 52 -13 6 -10 -50 -126 -66 -135 -17 -11 -53 36 -73 97 -18 56 -13 73 18 64 11 -4 43 -9 69 -13z"></path><path id="pNB0qO68h" d="M2807 584 c-10 -11 -8 -354 3 -458 5 -49 14 -94 20 -100 7 -7 56 -11 128 -10 103 0 124 3 173 26 41 19 60 34 71 59 23 47 14 78 -43 148 -49 61 -49 61 -24 99 35 54 55 117 55 177 0 48 -2 53 -20 48 -12 -3 -20 0 -20 6 0 8 -14 11 -37 9 -38 -3 -38 -3 -45 -87 -11 -130 -57 -174 -120 -114 -29 27 -30 30 -26 113 3 85 3 85 -52 88 -31 2 -59 0 -63 -4z m180 -325 c48 -23 93 -71 93 -100 0 -12 -10 -23 -26 -29 -32 -12 -111 -13 -118 -1 -3 5 -9 41 -12 80 -8 81 -5 83 63 50z"></path><path id="pc8E5994N" d="M3310 581 c0 -5 -8 -8 -17 -7 -13 1 -19 -10 -25 -39 -19 -106 0 -250 47 -353 29 -63 98 -157 122 -166 26 -10 58 18 112 99 74 112 95 189 88 326 -7 140 -12 149 -82 149 -59 0 -64 -6 -40 -44 9 -13 18 -53 22 -89 6 -65 6 -65 -36 -77 -30 -8 -44 -8 -54 0 -6 6 -27 20 -44 30 -28 17 -33 25 -33 58 0 21 8 54 19 74 10 21 16 40 13 43 -9 9 -92 6 -92 -4z m173 -287 c42 -6 47 -9 41 -28 -9 -28 -39 -86 -57 -110 -14 -19 -15 -19 -39 6 -25 28 -61 125 -51 141 3 5 17 6 32 3 14 -3 47 -9 74 -12z"></path></g></g></svg>